#N canvas 301 428 689 637 10;
#X obj 62 17 gemwin;
#X msg 75 -10 0 \, destroy;
#X msg 61 -33 create \, 1;
#X obj 234 79 gemhead;
#X obj 249 -45 bng 25 250 50 0 empty empty empty 0 -6 0 8 -262144 -1
-1;
#X text 291 -81 open a supported;
#X text 292 -70 movie-clip;
#X obj 392 110 bng 130 500 25 0 empty empty the.end 8 50 0 24 -262144
-1 -262144;
#X obj 249 -16 openpanel;
#X msg 249 4 open \$1;
#X obj 224 103 pix_film;
#X obj 37 342 pix_draw;
#X obj 144 307 pix_threshold;
#X msg 47 -52 reset \, dimen 640 480 \, create \, 1;
#X obj 173 172 pix_delay 2;
#X msg 246 150 1;
#X obj 243 130 loadbang;
#X obj 195 193 pix_diff;
#X obj 42 387 pix_movement;
#X obj 182 235 pix_delay 2;
#X msg 259 212 1;
#X obj 256 192 loadbang;
#X obj 204 256 pix_diff;
#X obj 185 333 pix_blob;
#X obj 18 45 bng 130 50 10 0 empty empty cut! 4 60 0 52 -262144 -258113
-262144;
#X obj 320 6 tgl 15 0 empty empty empty 17 7 0 10 -262144 -1 -1 0 1
;
#X obj 330 50 int;
#X obj 342 71 + 1;
#X obj 307 276 int;
#N canvas 453 776 450 300 pix_movement.approach 0;
#X obj 50 160 square 3;
#X obj 50 138 pix_texture;
#X floatatom 126 29 3 0 100 2 threshold - -;
#X obj 50 70 pix_movement 0.5;
#X obj 125 45 / 100;
#X obj 50 117 alpha;
#X obj 80 96 tgl 15 1 empty empty empty 0 -6 0 8 -262144 -1 -1 1 1
;
#X connect 1 0 0 0;
#X connect 2 0 4 0;
#X connect 3 0 5 0;
#X connect 4 0 3 1;
#X connect 5 0 1 0;
#X connect 6 0 5 0;
#X restore 29 411 pd pix_movement.approach;
#N canvas 977 699 450 300 mem.hsl 0;
#X obj 104 33 inlet;
#X obj 125 231 outlet;
#X obj 103 101 hsl 128 43 0 1 0 0 empty empty adjust_threshold -2 36
0 13 -262144 -1 -1 5200 1;
#X msg 54 102 set \$1;
#X msg 60 120 0.409449;
#X obj 0 120 loadbang;
#X connect 0 0 2 0;
#X connect 2 0 3 0;
#X connect 2 0 1 0;
#X connect 3 0 4 0;
#X connect 4 0 2 0;
#X connect 5 0 4 0;
#X coords 0 -1 1 1 134 45 1 100 100;
#X restore 15 175 pd mem.hsl;
#X obj 210 388 spigot 1;
#X msg 237 365 0;
#X msg 267 365 1;
#X obj 322 -24 r scene;
#X obj 400 37 bng 15 250 50 0 empty empty empty 17 7 0 10 -262144 -1
-1;
#X obj 330 339 textfile;
#X msg 327 319 add \$1;
#X obj 337 273 symbol;
#X obj 241 -88 loadbang;
#X obj 250 -64 del 50;
#X obj 162 27 del 50;
#X obj 164 5 bang;
#X obj 163 51 del 50;
#X msg 164 73 1;
#X msg 446 247 0;
#N canvas 466 392 463 433 loadmeter 0;
#X obj 104 13 cputime;
#X obj 104 -127 loadbang;
#X msg 104 -99 1;
#X floatatom 104 -71 0 0 0 0 - - -;
#X obj 104 -15 t b b;
#X obj 104 73 * 0.1;
#X obj 104 42 int;
#X text 149 -71 <-- on/off;
#X text 47 138 CPU load in percent;
#X obj 101 101 cnv 15 60 40 empty empty sipiu% 2 12 0 14 -233017 -66577
0;
#X floatatom 118 121 0 0 0 0 - - -;
#X obj 107 263 outlet;
#X floatatom 247 -73 5 0 0 0 - - -;
#X obj 249 -31 expr ($f1-80)*.125;
#N canvas 1255 600 450 300 undercurve 0;
#X obj 130 28 inlet;
#X obj 148 247 outlet;
#X obj 135 74 t f b;
#X obj 133 187 +;
#X obj 168 145 float 100;
#X msg 208 76 100;
#X obj 258 174 moses 4;
#X connect 0 0 2 0;
#X connect 2 0 3 0;
#X connect 2 1 4 0;
#X connect 3 0 6 0;
#X connect 4 0 3 1;
#X connect 5 0 4 0;
#X connect 6 1 4 1;
#X connect 6 1 1 0;
#X restore 249 151 pd undercurve;
#X floatatom 251 229 5 0 0 0 - - -;
#X obj 167 242 outlet;
#X obj 92 161 moses 5;
#X obj 104 -43 metro 1000;
#X obj 118 198 * 0.5;
#X floatatom 154 217 5 0 0 0 - - -;
#X connect 0 0 6 0;
#X connect 1 0 2 0;
#X connect 2 0 3 0;
#X connect 3 0 18 0;
#X connect 4 0 0 0;
#X connect 4 1 0 1;
#X connect 5 0 10 0;
#X connect 6 0 5 0;
#X connect 10 0 17 0;
#X connect 12 0 13 0;
#X connect 13 0 14 0;
#X connect 18 0 4 0;
#X connect 19 0 11 0;
#X connect 19 0 20 0;
#X coords 0 -1 1 1 60 40 2 100 100;
#X restore 378 -51 pd loadmeter;
#X obj 280 338 print;
#X obj 320 27 metro 15;
#X obj 433 348 pipe 500;
#X msg 323 298 write .temp.fnord.data/cutframe.txt;
#X obj 126 224 bng 25 250 50 0 empty empty 1up 0 15 2 14 -45076 -4034
-4034;
#X msg 281 306 clear;
#X obj 233 285 t 0 b;
#X obj 444 268 s scene;
#X obj 164 95 s scene;
#X msg 400 7 36;
#X obj 392 90 change;
#X msg 434 90 1;
#X obj 464 90 loadbang;
#X obj 211 409 s cut;
#X obj 18 25 r cut;
#X obj 141 365 moses 0.0001;
#X obj 504 430 bng 15 250 50 0 empty empty empty 17 7 0 10 -262144
-1 -1;
#X obj 503 514 s pd;
#X obj 501 454 getdir;
#X msg 503 476 open 3.frame.x.frame.review.pd \$1;
#N canvas 864 658 322 356 shell.python.operator 1;
#X obj 85 132 shell;
#X obj 67 5 inlet;
#X obj 113 55 + 1;
#X obj 75 53 int 2;
#X obj 74 210 int 0;
#X obj 116 213 + 1;
#X msg 112 182 0;
#X obj 63 176 bang;
#X floatatom 74 231 5 0 0 0 - - -;
#X msg 17 18 2;
#X obj 121 274 <;
#X obj 128 300 sel 1 0;
#X obj 230 195 del 50;
#X msg 83 107 python 2.lonely.cut.trash.py \$1;
#X floatatom 141 70 5 0 0 0 - - -;
#X obj 128 335 outlet;
#X obj -28 270 print lonely.cut.trash;
#X msg -26 245 found nothing;
#X obj 75 26 del 50;
#X msg 117 245 30;
#X obj 55 81 sel 4;
#X connect 0 0 7 0;
#X connect 0 1 6 0;
#X connect 1 0 18 0;
#X connect 2 0 3 1;
#X connect 2 0 14 0;
#X connect 3 0 2 0;
#X connect 3 0 20 0;
#X connect 4 0 5 0;
#X connect 4 0 8 0;
#X connect 5 0 4 1;
#X connect 6 0 4 1;
#X connect 6 0 19 0;
#X connect 7 0 4 0;
#X connect 8 0 10 1;
#X connect 9 0 3 1;
#X connect 10 0 11 0;
#X connect 11 0 15 0;
#X connect 11 1 12 0;
#X connect 12 0 3 0;
#X connect 13 0 0 0;
#X connect 17 0 16 0;
#X connect 18 0 3 0;
#X connect 19 0 10 0;
#X connect 20 0 17 0;
#X connect 20 0 9 0;
#X connect 20 1 13 0;
#X restore 378 378 pd shell.python.operator;
#X obj 440 469 symbol;
#X obj 441 503 s videoclip;
#X msg 363 489 \; pd close \;;
#X obj 442 409 t b b b b;
#X obj 603 -75 bng 15 250 50 0 empty empty empty 17 7 0 10 -262144
-1 -1;
#X msg 611 -54 0;
#X msg 356 1 8;
#X connect 1 0 0 0;
#X connect 2 0 0 0;
#X connect 3 0 10 0;
#X connect 4 0 8 0;
#X connect 7 0 38 0;
#X connect 7 0 45 0;
#X connect 7 0 49 0;
#X connect 8 0 9 0;
#X connect 8 0 38 1;
#X connect 8 0 42 0;
#X connect 8 0 68 1;
#X connect 9 0 10 0;
#X connect 10 0 17 1;
#X connect 10 0 14 0;
#X connect 10 2 57 0;
#X connect 12 0 23 0;
#X connect 13 0 0 0;
#X connect 14 0 17 0;
#X connect 15 0 14 1;
#X connect 16 0 15 0;
#X connect 17 0 22 1;
#X connect 17 0 19 0;
#X connect 19 0 22 0;
#X connect 20 0 19 1;
#X connect 21 0 20 0;
#X connect 22 0 12 0;
#X connect 23 3 62 0;
#X connect 24 0 28 0;
#X connect 25 0 48 0;
#X connect 26 0 27 0;
#X connect 27 0 26 1;
#X connect 27 0 28 1;
#X connect 27 0 10 1;
#X connect 28 0 37 0;
#X connect 28 0 47 0;
#X connect 30 0 12 1;
#X connect 31 0 60 0;
#X connect 32 0 31 1;
#X connect 33 0 31 1;
#X connect 34 0 25 0;
#X connect 35 0 26 0;
#X connect 37 0 36 0;
#X connect 38 0 50 0;
#X connect 39 0 40 0;
#X connect 40 0 4 0;
#X connect 41 0 13 0;
#X connect 41 0 43 0;
#X connect 42 0 41 0;
#X connect 43 0 44 0;
#X connect 44 0 55 0;
#X connect 45 0 54 0;
#X connect 48 0 26 0;
#X connect 49 0 67 0;
#X connect 50 0 36 0;
#X connect 51 0 53 0;
#X connect 52 0 36 0;
#X connect 53 0 26 1;
#X connect 53 1 52 0;
#X connect 56 0 48 1;
#X connect 57 0 7 0;
#X connect 58 0 57 0;
#X connect 59 0 58 0;
#X connect 61 0 24 0;
#X connect 62 1 31 0;
#X connect 63 0 65 0;
#X connect 65 0 66 0;
#X connect 66 0 64 0;
#X connect 67 0 71 0;
#X connect 68 0 69 0;
#X connect 71 0 70 0;
#X connect 71 1 68 0;
#X connect 71 2 65 0;
#X connect 71 3 72 0;
#X connect 72 0 1 0;
#X connect 72 0 73 0;
#X connect 73 0 3 0;
#X connect 74 0 48 1;
