#N canvas 1208 460 587 497 10;
#X obj 48 172 gemwin;
#X msg 76 125 0 \, destroy;
#X obj 53 133 tgl 15 0 empty empty empty 17 7 0 10 -262144 -1 -1 0
1;
#X msg 62 102 create \, 1;
#X obj 240 43 gemhead;
#X obj 252 73 bng 25 250 50 0 empty empty empty 0 -6 0 8 -262144 -1
-1;
#X text 254 55 open a supported;
#X text 282 69 movie-clip;
#X obj 276 182 bng 15 250 50 0 empty empty end_reached 20 7 0 10 -262144
-1 -1;
#X floatatom 417 271 5 0 0 1 frame# - -;
#X obj 252 102 openpanel;
#X msg 252 122 open \$1;
#X obj 250 161 pix_film;
#X msg 48 83 reset \, dimen 640 480 \, create \, 1;
#X obj 317 257 int;
#X obj 369 233 + 1;
#X obj 74 328 textfile;
#X obj 292 14 loadbang;
#X obj 301 38 del 50;
#X obj 197 165 del 50;
#X obj 213 143 bang;
#X obj 400 106 keyname;
#X obj 245 211 pix_draw;
#X obj 396 148 route 1 0;
#X obj 397 127 pack f s;
#X obj 367 268 int;
#X obj 392 174 route Left Right;
#X obj 391 206 bng 40 250 50 0 empty empty < 12 19 0 40 -262144 -1
-1;
#X obj 437 208 bng 40 250 50 0 empty empty > 6 19 0 40 -262144 -1 -1
;
#X msg 90 302 rewind;
#X obj 57 305 bng 15 250 50 0 empty empty empty 17 7 0 10 -262144 -1
-1;
#X obj 129 332 bng 15 250 50 0 empty empty empty 17 7 0 10 -262144
-1 -1;
#X obj 37 254 t b b b;
#X obj 12 458 table framies;
#X obj 41 409 tabwrite framies;
#X obj 110 376 int 0;
#X obj 151 376 + 1;
#X obj 73 353 t b f b;
#X obj 24 341 del 25;
#X msg 144 400 \; framies resize \$1;
#X obj 479 425 tabread framies;
#X obj 447 302 route Up Down;
#X obj 521 356 int 0;
#X obj 562 356 + 1;
#X obj 429 356 int 0;
#X obj 470 356 + -1;
#X floatatom 480 394 5 0 450 0 - - -;
#X obj 429 330 bang;
#X obj 525 333 bang;
#X obj 393 81 gemkeyname;
#X msg 83 278 read .temp.fnord.data/subliminals.txt;
#X msg 538 139 Down;
#X msg 502 138 Left;
#X msg 496 81 Right;
#X obj 509 110 t b b;
#X obj 364 25 tgl 15 0 empty empty empty 17 7 0 10 -262144 -1 -1 0
1;
#X obj 466 20 count 9;
#X floatatom 181 375 5 0 0 0 - - -;
#X floatatom 423 462 5 0 0 0 - - -;
#X obj 367 438 <;
#X obj 333 235 + -6;
#X obj 445 46 sel 0 2 4 7 8;
#X obj 417 394 sel 1;
#X obj 389 21 metro 120;
#X connect 1 0 0 0;
#X connect 2 0 0 0;
#X connect 3 0 0 0;
#X connect 4 0 12 0;
#X connect 5 0 10 0;
#X connect 9 0 12 1;
#X connect 9 0 15 0;
#X connect 9 0 60 0;
#X connect 10 0 11 0;
#X connect 10 0 20 0;
#X connect 11 0 12 0;
#X connect 12 0 22 0;
#X connect 12 2 8 0;
#X connect 13 0 0 0;
#X connect 14 0 9 0;
#X connect 15 0 25 1;
#X connect 16 0 37 0;
#X connect 16 1 31 0;
#X connect 17 0 18 0;
#X connect 18 0 5 0;
#X connect 19 0 13 0;
#X connect 19 0 32 0;
#X connect 20 0 19 0;
#X connect 21 0 24 0;
#X connect 21 1 24 1;
#X connect 23 0 26 0;
#X connect 24 0 23 0;
#X connect 25 0 9 0;
#X connect 26 0 27 0;
#X connect 26 1 28 0;
#X connect 26 2 41 0;
#X connect 27 0 14 0;
#X connect 28 0 25 0;
#X connect 29 0 16 0;
#X connect 30 0 16 0;
#X connect 31 0 46 0;
#X connect 32 0 30 0;
#X connect 32 1 29 0;
#X connect 32 2 50 0;
#X connect 35 0 36 0;
#X connect 35 0 34 1;
#X connect 36 0 35 1;
#X connect 36 0 39 0;
#X connect 36 0 57 0;
#X connect 37 0 38 0;
#X connect 37 1 34 0;
#X connect 37 2 35 0;
#X connect 38 0 16 0;
#X connect 40 0 9 0;
#X connect 41 0 47 0;
#X connect 41 1 48 0;
#X connect 42 0 46 0;
#X connect 43 0 42 1;
#X connect 44 0 46 0;
#X connect 45 0 44 1;
#X connect 46 0 45 0;
#X connect 46 0 43 0;
#X connect 46 0 40 0;
#X connect 46 0 59 0;
#X connect 47 0 44 0;
#X connect 48 0 42 0;
#X connect 49 0 24 0;
#X connect 49 1 24 1;
#X connect 50 0 16 0;
#X connect 51 0 26 0;
#X connect 52 0 26 0;
#X connect 53 0 26 0;
#X connect 54 0 52 0;
#X connect 54 1 51 0;
#X connect 55 0 63 0;
#X connect 56 0 61 0;
#X connect 57 0 59 1;
#X connect 58 0 62 0;
#X connect 59 0 58 0;
#X connect 60 0 14 1;
#X connect 61 0 53 0;
#X connect 61 2 53 0;
#X connect 61 4 54 0;
#X connect 62 1 55 0;
#X connect 63 0 56 0;
