#N canvas 1192 452 401 500 10;
#X obj 54 299 gemhead;
#X floatatom 167 241 5 0 0 1 frame# - -;
#X msg 71 345 open \$1;
#X obj 51 367 pix_film;
#X obj 67 227 int;
#X obj 119 203 + 1;
#X obj 134 68 keyname;
#X obj 49 391 pix_draw;
#X obj 130 110 route 1 0;
#X obj 131 89 pack f s;
#X obj 117 238 int;
#X obj 142 144 route Left Right;
#X obj 141 176 bng 40 250 50 0 empty empty < 12 19 0 40 -262144 -1
-1;
#X obj 187 178 bng 40 250 50 0 empty empty > 6 19 0 40 -262144 -1 -1
;
#X obj 24 148 table framies;
#X obj 280 408 tabread framies;
#X obj 204 262 route Up Down;
#X obj 271 326 int 0;
#X obj 312 326 + 1;
#X obj 179 326 int 0;
#X obj 220 326 + -1;
#X floatatom 281 377 5 0 450 0 - - -;
#X obj 179 300 bang;
#X obj 275 303 bang;
#X obj 127 43 gemkeyname;
#X msg 300 172 Down;
#X msg 264 171 Left;
#X msg 258 114 Right;
#X obj 271 143 t b b;
#X obj 196 22 tgl 15 0 empty empty empty 17 7 0 10 -262144 -1 -1 0
1;
#X obj 203 58 count 9;
#X floatatom 213 445 5 0 0 0 - - -;
#X obj 171 411 <;
#X obj 83 205 + -6;
#X obj 207 79 sel 0 2 4 7 8;
#X obj 218 377 sel 1;
#X obj 72 325 r videoclip;
#X obj 36 299 tgl 15 0 empty empty empty 17 7 0 10 -262144 -1 -1 0
1;
#X obj 137 264 s framy;
#N canvas 1463 763 450 300 counter.ticker 0;
#X obj 130 -750 gemhead;
#X msg 126 -624 font EHSMB.TTF;
#X obj 125 -578 text3d;
#X obj 128 -649 loadbang;
#X obj 42 -648 r framy;
#X msg 170 -598 10;
#X floatatom 57 -575 5 0 0 0 - - -;
#X obj 83 -722 translateXYZ -4.2 -3.4 0.1;
#X obj 95 -686 colorRGB 1 0.6 1;
#X connect 0 0 7 0;
#X connect 1 0 2 0;
#X connect 3 0 1 0;
#X connect 3 0 5 0;
#X connect 4 0 2 0;
#X connect 5 0 2 1;
#X connect 6 0 2 0;
#X connect 7 0 8 0;
#X connect 8 0 2 0;
#X restore 28 174 pd counter.ticker;
#X obj 280 434 s framecue;
#X obj 233 221 r framecue;
#N canvas 532 532 342 396 intialize.and.interpret 0;
#X obj 58 157 gemwin;
#X msg 86 110 0 \, destroy;
#X obj 63 118 tgl 15 0 empty empty empty 17 7 0 10 -262144 -1 -1 0
1;
#X msg 88 89 create \, 1;
#X msg 58 68 reset \, dimen 640 480 \, create \, 1;
#X obj 84 258 textfile;
#X obj 37 43 del 50;
#X msg 100 232 rewind;
#X obj 67 235 bng 15 250 50 0 empty empty empty 17 7 0 10 -262144 -1
-1;
#X obj 135 278 bng 15 250 50 0 empty empty empty 17 7 0 10 -262144
-1 -1;
#X obj 47 184 t b b b;
#X obj 51 339 tabwrite framies;
#X obj 120 306 int 0;
#X obj 161 306 + 1;
#X obj 83 283 t b f b;
#X obj 34 271 del 25;
#X msg 154 330 \; framies resize \$1;
#X msg 93 208 read .temp.fnord.data/subliminals.txt;
#X floatatom 191 305 5 0 0 0 - - -;
#X obj 30 23 loadbang;
#X obj 201 375 outlet;
#X obj 275 370 outlet;
#X connect 1 0 0 0;
#X connect 2 0 0 0;
#X connect 3 0 0 0;
#X connect 4 0 0 0;
#X connect 5 0 14 0;
#X connect 5 1 9 0;
#X connect 6 0 4 0;
#X connect 6 0 10 0;
#X connect 7 0 5 0;
#X connect 8 0 5 0;
#X connect 9 0 21 0;
#X connect 10 0 8 0;
#X connect 10 1 7 0;
#X connect 10 2 17 0;
#X connect 12 0 13 0;
#X connect 12 0 11 1;
#X connect 13 0 12 1;
#X connect 13 0 16 0;
#X connect 13 0 18 0;
#X connect 14 0 15 0;
#X connect 14 1 11 0;
#X connect 14 2 12 0;
#X connect 15 0 5 0;
#X connect 17 0 5 0;
#X connect 18 0 20 0;
#X connect 19 0 6 0;
#X restore 168 349 pd intialize.and.interpret;
#X obj 226 401 s fin;
#X obj 191 3 r fin;
#X obj 204 38 metro 125;
#N canvas 1334 730 494 324 take.a.pic 0;
#X obj 23 22 inlet;
#X obj 15 46 route Space;
#X obj 188 30 r videoclip;
#X obj 49 79 int;
#X obj 98 47 r framy;
#X obj 339 111 s videoclip;
#X obj 205 245 shell;
#X obj 183 141 makefilename screengrabs/%s;
#X obj 189 116 symbol;
#X obj 201 222 prepend mkdir;
#X obj 220 73 symbol2list /;
#X obj 97 109 list length;
#X obj 75 158 list split;
#X obj 125 137 - 1;
#X msg 16 198 import -window GEM \$1.jpg;
#X obj -17 295 shell;
#X msg 117 274 mv \$1 \$2;
#X obj 117 240 pack s s;
#X msg 80 218 \$1.jpg;
#X obj 85 298 shell;
#X obj 22 133 pipe 1000;
#X connect 0 0 1 0;
#X connect 1 0 3 0;
#X connect 2 0 10 0;
#X connect 3 0 14 0;
#X connect 3 0 20 0;
#X connect 4 0 3 1;
#X connect 7 0 9 0;
#X connect 7 0 17 1;
#X connect 8 0 7 0;
#X connect 9 0 6 0;
#X connect 10 0 11 0;
#X connect 10 0 12 0;
#X connect 11 0 13 0;
#X connect 12 1 8 0;
#X connect 13 0 12 1;
#X connect 14 0 15 0;
#X connect 16 0 19 0;
#X connect 17 0 16 0;
#X connect 18 0 17 0;
#X connect 20 0 18 0;
#X restore 304 278 pd take.a.pic;
#X text 312 259 screengrab!;
#X connect 0 0 3 0;
#X connect 1 0 3 1;
#X connect 1 0 5 0;
#X connect 1 0 33 0;
#X connect 1 0 38 0;
#X connect 2 0 3 0;
#X connect 3 0 7 0;
#X connect 4 0 1 0;
#X connect 5 0 10 1;
#X connect 6 0 9 0;
#X connect 6 1 9 1;
#X connect 8 0 11 0;
#X connect 9 0 8 0;
#X connect 10 0 1 0;
#X connect 11 0 12 0;
#X connect 11 1 13 0;
#X connect 11 2 16 0;
#X connect 12 0 4 0;
#X connect 13 0 10 0;
#X connect 15 0 40 0;
#X connect 16 0 22 0;
#X connect 16 1 23 0;
#X connect 16 2 46 0;
#X connect 17 0 21 0;
#X connect 18 0 17 1;
#X connect 19 0 21 0;
#X connect 20 0 19 1;
#X connect 21 0 20 0;
#X connect 21 0 18 0;
#X connect 21 0 15 0;
#X connect 21 0 32 0;
#X connect 22 0 19 0;
#X connect 23 0 17 0;
#X connect 24 0 9 0;
#X connect 24 1 9 1;
#X connect 25 0 11 0;
#X connect 26 0 11 0;
#X connect 27 0 11 0;
#X connect 28 0 26 0;
#X connect 28 1 25 0;
#X connect 29 0 45 0;
#X connect 30 0 34 0;
#X connect 31 0 35 0;
#X connect 32 0 31 0;
#X connect 33 0 4 1;
#X connect 34 0 27 0;
#X connect 34 2 27 0;
#X connect 34 4 28 0;
#X connect 35 1 43 0;
#X connect 36 0 2 0;
#X connect 37 0 0 0;
#X connect 41 0 1 0;
#X connect 42 0 32 1;
#X connect 42 1 21 0;
#X connect 44 0 29 0;
#X connect 45 0 30 0;
